<svg width="852" height="236" viewBox="0 0 852 236" fill="none" xmlns="http://www.w3.org/2000/svg">
<path d="M760.152 2.57L798.188 82.497L835.453 2.57H851.644L805.384 99.459V182.47H788.936V98.945L742.419 2.57H760.152Z" fill="url(#paint0_linear_6601_1042)"/>
<path d="M551.325 92.52C551.325 79.67 553.638 67.6767 558.264 56.54C562.89 45.232 569.315 35.466 577.539 27.242C585.763 18.8467 595.615 12.2503 607.094 7.453C618.574 2.48433 631.252 0 645.13 0C659.008 0 671.687 2.48433 683.166 7.453C694.646 12.2503 704.583 18.8467 712.978 27.242C721.374 35.466 727.884 45.232 732.51 56.54C737.136 67.6767 739.449 79.67 739.449 92.52C739.449 105.199 737.136 117.192 732.51 128.5C727.884 139.637 721.374 149.403 712.978 157.798C704.583 166.022 694.646 172.618 683.166 177.587C671.687 182.384 659.008 184.783 645.13 184.783C631.595 184.783 619.088 182.384 607.608 177.587C596.129 172.79 586.192 166.193 577.796 157.798C569.572 149.403 563.062 139.637 558.264 128.5C553.638 117.192 551.325 105.199 551.325 92.52ZM645.13 169.62C656.267 169.62 666.547 167.65 675.97 163.709C685.394 159.597 693.532 154.114 700.385 147.261C707.239 140.236 712.55 132.012 716.319 122.589C720.26 113.166 722.23 103.143 722.23 92.52C722.23 81.726 720.346 71.6173 716.576 62.194C712.978 52.7707 707.753 44.6323 700.899 37.779C694.217 30.7543 686.079 25.2717 676.484 21.331C667.061 17.219 656.61 15.163 645.13 15.163C633.651 15.163 623.114 17.219 613.519 21.331C604.096 25.2717 595.958 30.7543 589.104 37.779C582.422 44.6323 577.197 52.7707 573.427 62.194C569.658 71.6173 567.773 81.726 567.773 92.52C567.773 103.314 569.658 113.423 573.427 122.846C577.197 132.098 582.422 140.236 589.104 147.261C595.958 154.114 604.096 159.597 613.519 163.709C623.114 167.65 633.651 169.62 645.13 169.62Z" fill="url(#paint1_linear_6601_1042)"/>
<path d="M531.43 130.299C531.43 166.964 513.868 185.297 478.745 185.297C443.621 185.297 426.06 166.964 426.06 130.299V125.416H442.508V130.299C442.508 143.32 445.42 153.258 451.246 160.111C457.242 166.964 466.409 170.391 478.745 170.391C491.081 170.391 500.161 166.964 505.987 160.111C511.983 153.258 514.982 143.32 514.982 130.299V2.57H531.43V130.299Z" fill="url(#paint2_linear_6601_1042)"/>
<path d="M267.625 2.57H353.206V17.476H284.073V83.525H353.206V98.431H284.073V167.564H353.206V182.47H267.625V2.57Z" fill="url(#paint3_linear_6601_1042)"/>
<path d="M233.089 2.57V182.47H216.641V98.431H143.396V182.47H126.948V2.57H143.396V83.525H216.641V2.57H233.089Z" fill="url(#paint4_linear_6601_1042)"/>
<path d="M0 2.57H106.398V17.476H61.423V182.47H44.975V17.476H0V2.57Z" fill="url(#paint5_linear_6601_1042)"/>
<defs>
<linearGradient id="paint0_linear_6601_1042" x1="400.666" y1="2.10507" x2="400.666" y2="155.509" gradientUnits="userSpaceOnUse">
<stop stop-color="#EAB6A0"/>
<stop offset="1" stop-color="#ca8c19"/>
</linearGradient>
<linearGradient id="paint1_linear_6601_1042" x1="400.666" y1="2.10507" x2="400.666" y2="155.509" gradientUnits="userSpaceOnUse">
<stop stop-color="#EAB6A0"/>
<stop offset="1" stop-color="#ca8c19"/>
</linearGradient>
<linearGradient id="paint2_linear_6601_1042" x1="400.666" y1="2.10507" x2="400.666" y2="155.509" gradientUnits="userSpaceOnUse">
<stop stop-color="#EAB6A0"/>
<stop offset="1" stop-color="#ca8c19"/>
</linearGradient>
<linearGradient id="paint3_linear_6601_1042" x1="400.666" y1="2.10507" x2="400.666" y2="155.509" gradientUnits="userSpaceOnUse">
<stop stop-color="#EAB6A0"/>
<stop offset="1" stop-color="#ca8c19"/>
</linearGradient>
<linearGradient id="paint4_linear_6601_1042" x1="400.666" y1="2.10507" x2="400.666" y2="155.509" gradientUnits="userSpaceOnUse">
<stop stop-color="#EAB6A0"/>
<stop offset="1" stop-color="#ca8c19"/>
</linearGradient>
<linearGradient id="paint5_linear_6601_1042" x1="400.666" y1="2.10507" x2="400.666" y2="155.509" gradientUnits="userSpaceOnUse">
<stop stop-color="#EAB6A0"/>
<stop offset="1" stop-color="#ca8c19"/>
</linearGradient>
</defs>
</svg>
