<svg width="320" height="70" viewBox="0 0 320 70" fill="none" xmlns="http://www.w3.org/2000/svg">
<path d="M81.5657 0.812363V4.918H62.5705V23.1102H81.5657V27.2158H62.5705V50.3631H58.0512V0.812363H81.5657Z" fill="url(#paint0_linear_6601_1052)"/>
<path d="M0.353516 25.5877C0.353516 22.0484 0.989042 18.745 2.26009 15.6776C3.53115 12.563 5.2965 9.87307 7.55615 7.60789C9.8158 5.29553 12.5227 3.47866 15.6768 2.15731C18.8309 0.788768 22.3145 0.104492 26.1276 0.104492C29.9408 0.104492 33.4244 0.788768 36.5785 2.15731C39.7326 3.47866 42.463 5.29553 44.7697 7.60789C47.0765 9.87307 48.8654 12.563 50.1364 15.6776C51.4075 18.745 52.043 22.0484 52.043 25.5877C52.043 29.0799 51.4075 32.3833 50.1364 35.4979C48.8654 38.5653 47.0765 41.2552 44.7697 43.5676C42.463 45.8327 39.7326 47.6496 36.5785 49.0181C33.4244 50.3395 29.9408 51.0002 26.1276 51.0002C22.4086 51.0002 18.9721 50.3395 15.818 49.0181C12.6639 47.6968 9.93349 45.8799 7.62676 43.5676C5.36711 41.2552 3.57822 38.5653 2.26009 35.4979C0.989042 32.3833 0.353516 29.0799 0.353516 25.5877ZM26.1276 46.8238C29.1876 46.8238 32.0121 46.2811 34.6013 45.1957C37.1905 44.0631 39.4266 42.5529 41.3097 40.6653C43.1927 38.7305 44.6521 36.4653 45.6877 33.8698C46.7705 31.2743 47.3119 28.5136 47.3119 25.5877C47.3119 22.6147 46.794 19.8304 45.7583 17.2349C44.7697 14.6394 43.3339 12.3978 41.4509 10.5102C39.6149 8.57532 37.3788 7.06519 34.7426 5.9798C32.1534 4.84721 29.2817 4.28091 26.1276 4.28091C22.9735 4.28091 20.0784 4.84721 17.4421 5.9798C14.8529 7.06519 12.6168 8.57532 10.7338 10.5102C8.89781 12.3978 7.462 14.6394 6.42632 17.2349C5.39065 19.8304 4.87281 22.6147 4.87281 25.5877C4.87281 28.5608 5.39065 31.3451 6.42632 33.9406C7.462 36.4889 8.89781 38.7305 10.7338 40.6653C12.6168 42.5529 14.8529 44.0631 17.4421 45.1957C20.0784 46.2811 22.9735 46.8238 26.1276 46.8238Z" fill="url(#paint1_linear_6601_1052)"/>
<path d="M294.739 1L305.241 23.0881L315.53 1H320L307.228 27.7756V50.7159H302.686V27.6335L289.843 1H294.739Z" fill="url(#paint2_linear_6601_1052)"/>
<path d="M267.575 26.7812H266.582V50.7159H262.041V1H272.542C276.8 1 280.182 2.13636 282.689 4.40909C285.196 6.63447 286.45 9.80682 286.45 13.9261C286.45 17.9508 285.196 21.0994 282.689 23.3722C280.23 25.5975 276.918 26.7339 272.755 26.7812L287.443 50.7159H282.264L267.575 26.7812ZM266.582 22.6619H272.542C275.239 22.6619 277.439 21.9044 279.141 20.3892C280.844 18.8267 281.696 16.6487 281.696 13.8551C281.696 11.1089 280.868 8.97822 279.212 7.46307C277.557 5.90057 275.333 5.11932 272.542 5.11932H266.582V22.6619Z" fill="url(#paint3_linear_6601_1052)"/>
<path d="M230.961 1H254.59V5.11932H235.502V23.3722H254.59V27.4915H235.502V46.5966H254.59V50.7159H230.961V1Z" fill="url(#paint4_linear_6601_1052)"/>
<path d="M208.298 51L193.751 1H198.505L209.859 41.696L221.212 1H225.753L211.278 51H208.298Z" fill="url(#paint5_linear_6601_1052)"/>
<path d="M167 1H190.629V5.11932H171.541V23.3722H190.629V27.4915H171.541V46.5966H190.629V50.7159H167V1Z" fill="url(#paint6_linear_6601_1052)"/>
<defs>
<linearGradient id="paint0_linear_6601_1052" x1="38.5607" y1="0.682695" x2="38.5607" y2="42.8184" gradientUnits="userSpaceOnUse">
<stop stop-color="#EAB6A0"/>
<stop offset="1" stop-color="#ca8c19"/>
</linearGradient>
<linearGradient id="paint1_linear_6601_1052" x1="38.5607" y1="0.682695" x2="38.5607" y2="42.8184" gradientUnits="userSpaceOnUse">
<stop stop-color="#EAB6A0"/>
<stop offset="1" stop-color="#ca8c19"/>
</linearGradient>
<linearGradient id="paint2_linear_6601_1052" x1="238.981" y1="1.56803" x2="238.981" y2="42.9622" gradientUnits="userSpaceOnUse">
<stop stop-color="#EAB6A0"/>
<stop offset="1" stop-color="#ca8c19"/>
</linearGradient>
<linearGradient id="paint3_linear_6601_1052" x1="238.981" y1="1.56803" x2="238.981" y2="42.9622" gradientUnits="userSpaceOnUse">
<stop stop-color="#EAB6A0"/>
<stop offset="1" stop-color="#ca8c19"/>
</linearGradient>
<linearGradient id="paint4_linear_6601_1052" x1="238.981" y1="1.56803" x2="238.981" y2="42.9622" gradientUnits="userSpaceOnUse">
<stop stop-color="#EAB6A0"/>
<stop offset="1" stop-color="#ca8c19"/>
</linearGradient>
<linearGradient id="paint5_linear_6601_1052" x1="238.981" y1="1.56803" x2="238.981" y2="42.9622" gradientUnits="userSpaceOnUse">
<stop stop-color="#EAB6A0"/>
<stop offset="1" stop-color="#ca8c19"/>
</linearGradient>
<linearGradient id="paint6_linear_6601_1052" x1="238.981" y1="1.56803" x2="238.981" y2="42.9622" gradientUnits="userSpaceOnUse">
<stop stop-color="#EAB6A0"/>
<stop offset="1" stop-color="#ca8c19"/>
</linearGradient>
</defs>
</svg>
