<svg width="1279" height="251" viewBox="0 0 1279 251" fill="none" xmlns="http://www.w3.org/2000/svg">
<path d="M295.857 2.57001V17.476H226.724V83.525H295.857V98.431H226.724V182.47H210.276V2.57001H295.857Z" fill="url(#paint0_linear_6601_1044)"/>
<path d="M0.285156 92.52C0.285156 79.67 2.59816 67.6767 7.22416 56.54C11.8502 45.232 18.2752 35.466 26.4992 27.242C34.7232 18.8467 44.5748 12.2503 56.0542 7.453C67.5335 2.48434 80.2122 0 94.0902 0C107.968 0 120.647 2.48434 132.126 7.453C143.605 12.2503 153.543 18.8467 161.938 27.242C170.333 35.466 176.844 45.232 181.47 56.54C186.096 67.6767 188.409 79.67 188.409 92.52C188.409 105.199 186.096 117.192 181.47 128.5C176.844 139.637 170.333 149.403 161.938 157.798C153.543 166.022 143.605 172.618 132.126 177.587C120.647 182.384 107.968 184.783 94.0902 184.783C80.5548 184.783 68.0475 182.384 56.5682 177.587C45.0888 172.79 35.1515 166.193 26.7562 157.798C18.5322 149.403 12.0215 139.637 7.22416 128.5C2.59816 117.192 0.285156 105.199 0.285156 92.52ZM94.0902 169.62C105.227 169.62 115.507 167.65 124.93 163.709C134.353 159.597 142.492 154.114 149.345 147.261C156.198 140.236 161.51 132.012 165.279 122.589C169.22 113.166 171.19 103.143 171.19 92.52C171.19 81.726 169.305 71.6173 165.536 62.194C161.938 52.7707 156.712 44.6324 149.859 37.779C143.177 30.7544 135.039 25.2717 125.444 21.331C116.021 17.219 105.569 15.163 94.0902 15.163C82.6108 15.163 72.0738 17.219 62.4792 21.331C53.0558 25.2717 44.9175 30.7544 38.0642 37.779C31.3822 44.6324 26.1565 52.7707 22.3872 62.194C18.6178 71.6173 16.7332 81.726 16.7332 92.52C16.7332 103.314 18.6178 113.423 22.3872 122.846C26.1565 132.098 31.3822 140.236 38.0642 147.261C44.9175 154.114 53.0558 159.597 62.4792 163.709C72.0738 167.65 82.6108 169.62 94.0902 169.62Z" fill="url(#paint1_linear_6601_1044)"/>
<path d="M1186.54 2.56934L1224.58 82.4963L1261.84 2.56934H1278.03L1231.77 99.4583V182.469H1215.32V98.9443L1168.81 2.56934H1186.54Z" fill="url(#paint2_linear_6601_1044)"/>
<path d="M1088.15 95.8603H1084.56V182.469H1068.11V2.56934H1106.14C1121.56 2.56934 1133.81 6.68134 1142.9 14.9053C1151.98 22.958 1156.52 34.4373 1156.52 49.3433C1156.52 63.9067 1151.98 75.3003 1142.9 83.5243C1133.99 91.577 1121.99 95.689 1106.92 95.8603L1160.11 182.469H1141.35L1088.15 95.8603ZM1084.56 80.9543H1106.14C1115.91 80.9543 1123.88 78.213 1130.05 72.7303C1136.21 67.0763 1139.3 59.195 1139.3 49.0863C1139.3 39.149 1136.3 31.439 1130.3 25.9563C1124.31 20.3023 1116.25 17.4753 1106.14 17.4753H1084.56V80.9543Z" fill="url(#paint3_linear_6601_1044)"/>
<path d="M955.54 2.56934H1041.12V17.4753H971.988V83.5243H1041.12V98.4303H971.988V167.563H1041.12V182.469H955.54V2.56934Z" fill="url(#paint4_linear_6601_1044)"/>
<path d="M873.455 183.497L820.77 2.56934H837.989L879.109 149.83L920.229 2.56934H936.677L884.249 183.497H873.455Z" fill="url(#paint5_linear_6601_1044)"/>
<path d="M723.879 2.56934H809.46V17.4753H740.327V83.5243H809.46V98.4303H740.327V167.563H809.46V182.469H723.879V2.56934Z" fill="url(#paint6_linear_6601_1044)"/>
<defs>
<linearGradient id="paint0_linear_6601_1044" x1="139.34" y1="2.09924" x2="139.34" y2="155.078" gradientUnits="userSpaceOnUse">
<stop stop-color="#EAB6A0"/>
<stop offset="1" stop-color="#ca8c19"/>
</linearGradient>
<linearGradient id="paint1_linear_6601_1044" x1="139.34" y1="2.09924" x2="139.34" y2="155.078" gradientUnits="userSpaceOnUse">
<stop stop-color="#EAB6A0"/>
<stop offset="1" stop-color="#ca8c19"/>
</linearGradient>
<linearGradient id="paint2_linear_6601_1044" x1="984.586" y1="4.62478" x2="984.586" y2="154.412" gradientUnits="userSpaceOnUse">
<stop stop-color="#EAB6A0"/>
<stop offset="1" stop-color="#ca8c19"/>
</linearGradient>
<linearGradient id="paint3_linear_6601_1044" x1="984.586" y1="4.62478" x2="984.586" y2="154.412" gradientUnits="userSpaceOnUse">
<stop stop-color="#EAB6A0"/>
<stop offset="1" stop-color="#ca8c19"/>
</linearGradient>
<linearGradient id="paint4_linear_6601_1044" x1="984.586" y1="4.62478" x2="984.586" y2="154.412" gradientUnits="userSpaceOnUse">
<stop stop-color="#EAB6A0"/>
<stop offset="1" stop-color="#ca8c19"/>
</linearGradient>
<linearGradient id="paint5_linear_6601_1044" x1="984.586" y1="4.62478" x2="984.586" y2="154.412" gradientUnits="userSpaceOnUse">
<stop stop-color="#EAB6A0"/>
<stop offset="1" stop-color="#ca8c19"/>
</linearGradient>
<linearGradient id="paint6_linear_6601_1044" x1="984.586" y1="4.62478" x2="984.586" y2="154.412" gradientUnits="userSpaceOnUse">
<stop stop-color="#EAB6A0"/>
<stop offset="1" stop-color="#ca8c19"/>
</linearGradient>
</defs>
</svg>
