<svg width="344" height="241" viewBox="0 0 344 241" fill="none" xmlns="http://www.w3.org/2000/svg">
<path d="M251.579 1.10028L289.615 81.0273L326.88 1.10028H343.071L296.811 97.9893V181H280.363V97.4753L233.846 1.10028H251.579Z" fill="url(#paint0_linear_5469_1798)"/>
<path d="M189.232 0.0722656L241.66 181H224.698L209.792 128.315H156.336L141.687 181H125.753L178.438 0.0722656H189.232ZM160.448 113.409H205.68L183.064 32.1973L160.448 113.409Z" fill="url(#paint1_linear_5469_1798)"/>
<path d="M27.242 1.10028C41.12 1.10028 53.7987 3.41328 65.278 8.03928C76.9287 12.494 86.866 18.7476 95.09 26.8003C103.485 34.853 109.996 44.362 114.622 55.3273C119.248 66.2926 121.561 78.2003 121.561 91.0503C121.561 103.729 119.248 115.551 114.622 126.516C109.996 137.482 103.485 146.991 95.09 155.043C86.866 163.096 76.9287 169.435 65.278 174.061C53.7987 178.687 41.12 181 27.242 181H0V1.10028H27.242ZM27.242 165.837C38.8927 165.837 49.4297 163.953 58.853 160.183C68.2763 156.243 76.329 150.931 83.011 144.249C89.693 137.567 94.833 129.686 98.431 120.605C102.029 111.525 103.828 101.673 103.828 91.0503C103.828 80.2563 102.029 70.319 98.431 61.2383C94.833 51.9863 89.693 44.0193 83.011 37.3373C76.329 30.6553 68.2763 25.4296 58.853 21.6603C49.4297 17.891 38.8927 16.0063 27.242 16.0063H16.448V165.837H27.242Z" fill="url(#paint2_linear_5469_1798)"/>
<defs>
<linearGradient id="paint0_linear_5469_1798" x1="161.402" y1="2.12771" x2="161.402" y2="151.915" gradientUnits="userSpaceOnUse">
<stop stop-color="#EAB6A0"/>
<stop offset="1" stop-color="#ca8c19"/>
</linearGradient>
<linearGradient id="paint1_linear_5469_1798" x1="161.402" y1="2.12771" x2="161.402" y2="151.915" gradientUnits="userSpaceOnUse">
<stop stop-color="#EAB6A0"/>
<stop offset="1" stop-color="#ca8c19"/>
</linearGradient>
<linearGradient id="paint2_linear_5469_1798" x1="161.402" y1="2.12771" x2="161.402" y2="151.915" gradientUnits="userSpaceOnUse">
<stop stop-color="#EAB6A0"/>
<stop offset="1" stop-color="#ca8c19"/>
</linearGradient>
</defs>
</svg>
