<svg width="1280" height="239" viewBox="0 0 1280 239" fill="none" xmlns="http://www.w3.org/2000/svg">
<path d="M1258.77 178.759C1258.77 167.191 1255.83 158.133 1249.95 151.585C1244.07 144.819 1236.67 139.253 1227.74 134.888C1218.82 130.522 1209.24 126.594 1199 123.101C1188.77 119.609 1179.19 115.353 1170.26 110.333C1161.33 105.095 1153.93 98.3283 1148.05 90.0342C1142.17 81.5219 1139.23 70.1721 1139.23 55.9849C1139.23 46.5995 1141.08 38.4146 1144.79 31.4301C1148.49 24.4457 1153.39 18.6616 1159.48 14.0781C1165.8 9.27625 1172.87 5.78401 1180.71 3.60136C1188.77 1.20045 1197.04 0 1205.53 0C1212.07 0 1218.49 0.763924 1224.8 2.29177C1231.34 3.60137 1237.54 5.67488 1243.42 8.51232C1249.3 11.1315 1254.63 14.5146 1259.42 18.6616C1264.43 22.8087 1268.68 27.6105 1272.16 33.0671L1259.1 44.526C1256.48 39.9425 1253.22 36.0137 1249.3 32.7397C1245.38 29.2475 1241.03 26.41 1236.24 24.2274C1231.44 21.8265 1226.44 20.0804 1221.21 18.989C1216.2 17.8977 1211.09 17.352 1205.86 17.352C1199.98 17.352 1194.21 18.116 1188.55 19.6438C1183.11 21.1717 1178.21 23.5726 1173.85 26.8466C1169.72 29.9023 1166.34 33.831 1163.73 38.6329C1161.33 43.2164 1160.14 48.7822 1160.14 55.3301C1160.14 63.8425 1161.88 70.9361 1165.36 76.611C1168.85 82.0676 1173.31 86.7603 1178.75 90.689C1184.41 94.6178 1190.84 98.0009 1198.02 100.838C1205.21 103.676 1212.5 106.513 1219.91 109.351C1227.53 112.188 1234.93 115.353 1242.11 118.845C1249.3 122.337 1255.61 126.703 1261.06 131.941C1266.72 136.961 1271.29 143.182 1274.77 150.603C1278.26 158.024 1280 167.082 1280 177.777C1280 187.599 1277.93 196.329 1273.79 203.968C1269.88 211.608 1264.54 218.047 1257.79 223.285C1251.26 228.523 1243.64 232.452 1234.93 235.071C1226.22 237.69 1217.29 239 1208.15 239C1200.31 239 1192.36 237.909 1184.31 235.726C1176.47 233.762 1169.06 230.815 1162.1 226.886C1155.35 222.739 1149.14 217.61 1143.48 211.499C1137.82 205.169 1133.36 197.748 1130.09 189.236L1146.75 179.086C1149.36 186.289 1152.95 192.619 1157.52 198.075C1162.1 203.314 1167.21 207.679 1172.87 211.171C1178.54 214.445 1184.52 216.955 1190.84 218.701C1197.15 220.447 1203.47 221.321 1209.78 221.321C1216.31 221.321 1222.52 220.447 1228.4 218.701C1234.28 216.955 1239.39 214.336 1243.75 210.844C1248.32 207.133 1251.91 202.659 1254.53 197.421C1257.36 191.964 1258.77 185.743 1258.77 178.759Z" fill="#051936"/>
<path d="M1023.35 124.084H1018.78V234.416H997.874V5.23836H1046.21C1065.81 5.23836 1081.38 10.4767 1092.92 20.9534C1104.46 31.2119 1110.23 45.8356 1110.23 64.8247C1110.23 83.3772 1104.46 97.8918 1092.92 108.368C1081.59 118.627 1066.35 123.865 1047.19 124.084L1114.8 234.416H1090.96L1023.35 124.084ZM1018.78 105.095H1046.21C1058.62 105.095 1068.75 101.602 1076.59 94.6178C1084.42 87.4151 1088.34 77.3749 1088.34 64.4973C1088.34 51.8379 1084.53 42.016 1076.91 35.0315C1069.29 27.8288 1059.06 24.2274 1046.21 24.2274H1018.78V105.095Z" fill="#051936"/>
<path d="M731.011 119.827C731.011 103.458 733.951 88.179 739.829 73.9918C745.708 59.5863 753.873 47.1452 764.325 36.6685C774.776 25.9735 787.296 17.5703 801.884 11.4589C816.472 5.12921 832.585 1.96437 850.221 1.96437C867.858 1.96437 883.97 5.12921 898.558 11.4589C913.147 17.5703 925.775 25.9735 936.444 36.6685C947.113 47.1452 955.387 59.5863 961.266 73.9918C967.145 88.179 970.084 103.458 970.084 119.827C970.084 135.979 967.145 151.258 961.266 165.663C955.387 179.85 947.113 192.291 936.444 202.986C925.775 213.463 913.147 221.866 898.558 228.196C883.97 234.307 867.858 237.363 850.221 237.363C833.02 237.363 817.125 234.307 802.537 228.196C787.949 222.084 775.32 213.681 764.651 202.986C754.2 192.291 745.926 179.85 739.829 165.663C733.951 151.258 731.011 135.979 731.011 119.827ZM850.221 218.047C864.374 218.047 877.438 215.537 889.414 210.516C901.389 205.278 911.731 198.294 920.441 189.563C929.15 180.614 935.9 170.137 940.69 158.133C945.698 146.128 948.202 133.36 948.202 119.827C948.202 106.077 945.807 93.1991 941.017 81.1945C936.444 69.1899 929.803 58.8224 921.094 50.0918C912.602 41.1429 902.26 34.1584 890.067 29.1383C878.091 23.9 864.809 21.2808 850.221 21.2808C835.633 21.2808 822.242 23.9 810.049 29.1383C798.074 34.1584 787.731 41.1429 779.022 50.0918C770.53 58.8224 763.889 69.1899 759.099 81.1945C754.309 93.1991 751.914 106.077 751.914 119.827C751.914 133.578 754.309 146.456 759.099 158.46C763.889 170.247 770.53 180.614 779.022 189.563C787.731 198.294 798.074 205.278 810.049 210.516C822.242 215.537 835.633 218.047 850.221 218.047Z" fill="#051936"/>
<path d="M703.324 5.23836V234.416H682.421V5.23836H703.324Z" fill="#051936"/>
<path d="M562.29 124.084H557.718V234.416H536.815V5.23836H585.152C604.749 5.23836 620.317 10.4767 631.857 20.9534C643.397 31.2119 649.167 45.8356 649.167 64.8247C649.167 83.3772 643.397 97.8918 631.857 108.368C620.534 118.627 605.293 123.865 586.132 124.084L653.739 234.416H629.897L562.29 124.084ZM557.718 105.095H585.152C597.563 105.095 607.688 101.602 615.526 94.6178C623.365 87.4151 627.284 77.3749 627.284 64.4973C627.284 51.8379 623.474 42.016 615.853 35.0315C608.232 27.8288 597.999 24.2274 585.152 24.2274H557.718V105.095Z" fill="#051936"/>
<path d="M393.761 5.23836H502.519V24.2274H414.663V108.368H502.519V127.358H414.663V215.427H502.519V234.416H393.761V5.23836Z" fill="#051936"/>
<path d="M232.431 5.23836H367.645V24.2274H310.49V234.416H289.587V24.2274H232.431V5.23836Z" fill="#051936"/>
<path d="M187.069 234.416L84.1895 47.8V234.416H64.5934V5.23836H83.8629L186.743 191.855V5.23836H206.339V234.416H187.069Z" fill="#051936"/>
<path d="M20.9026 5.23836V234.416H0V5.23836H20.9026Z" fill="#051936"/>
</svg>
