<svg width="1280" height="313" viewBox="0 0 1280 313" fill="none" xmlns="http://www.w3.org/2000/svg">
<path d="M1129.49 2.55762V13.9671H1076.57V64.5229H1129.49V75.9324H1076.57V140.258H1063.98V2.55762H1129.49Z" fill="url(#paint0_linear_6601_1073)"/>
<path d="M905.217 71.4073C905.217 61.5716 906.987 52.3915 910.528 43.8672C914.069 35.2117 918.987 27.7365 925.282 21.4417C931.577 15.0156 939.117 9.9666 947.904 6.29458C956.691 2.49142 966.395 0.589844 977.018 0.589844C987.64 0.589844 997.345 2.49142 1006.13 6.29458C1014.92 9.9666 1022.52 15.0156 1028.95 21.4417C1035.38 27.7365 1040.36 35.2117 1043.9 43.8672C1047.44 52.3915 1049.21 61.5716 1049.21 71.4073C1049.21 81.1119 1047.44 90.292 1043.9 98.9474C1040.36 107.472 1035.38 114.947 1028.95 121.373C1022.52 127.668 1014.92 132.717 1006.13 136.52C997.345 140.192 987.64 142.028 977.018 142.028C966.657 142.028 957.084 140.192 948.297 136.52C939.511 132.848 931.904 127.799 925.478 121.373C919.184 114.947 914.2 107.472 910.528 98.9474C906.987 90.292 905.217 81.1119 905.217 71.4073ZM977.018 130.422C985.542 130.422 993.411 128.914 1000.62 125.897C1007.84 122.75 1014.07 118.553 1019.31 113.308C1024.56 107.931 1028.62 101.636 1031.51 94.423C1034.52 87.2101 1036.03 79.5382 1036.03 71.4073C1036.03 63.1453 1034.59 55.4078 1031.7 48.1949C1028.95 40.982 1024.95 34.7527 1019.71 29.507C1014.59 24.1301 1008.36 19.9335 1001.02 16.9172C993.804 13.7698 985.804 12.196 977.018 12.196C968.231 12.196 960.166 13.7698 952.822 16.9172C945.609 19.9335 939.38 24.1301 934.134 29.507C929.019 34.7527 925.019 40.982 922.134 48.1949C919.249 55.4078 917.807 63.1453 917.807 71.4073C917.807 79.6694 919.249 87.4068 922.134 94.6197C925.019 101.701 929.019 107.931 934.134 113.308C939.38 118.553 945.609 122.75 952.822 125.897C960.166 128.914 968.231 130.422 977.018 130.422Z" fill="url(#paint1_linear_6601_1073)"/>
<path d="M850.952 2.55762V140.258H838.363V75.9324H782.299V140.258H769.709V2.55762H782.299V64.5229H838.363V2.55762H850.952Z" fill="url(#paint2_linear_6601_1073)"/>
<path d="M738.376 32.8511C733.261 26.5563 726.901 21.5728 719.294 17.9008C711.819 14.0976 702.771 12.196 692.148 12.196C683.492 12.196 675.558 13.7698 668.345 16.9172C661.132 19.9335 654.903 24.1301 649.657 29.507C644.543 34.8839 640.543 41.1788 637.658 48.3916C634.773 55.4734 633.33 63.1453 633.33 71.4073C633.33 79.6694 634.707 87.4068 637.461 94.6197C640.346 101.701 644.346 107.931 649.461 113.308C654.706 118.553 660.936 122.75 668.149 125.897C675.362 128.914 683.361 130.422 692.148 130.422C698.312 130.422 704.082 129.701 709.459 128.258C714.836 126.684 719.754 124.586 724.212 121.963C728.802 119.34 732.802 116.258 736.212 112.718C739.753 109.045 742.704 105.046 745.064 100.718L754.9 106.619C751.884 111.734 748.343 116.455 744.277 120.783C740.212 125.111 735.556 128.848 730.311 131.996C725.196 135.143 719.426 137.635 713 139.471C706.574 141.176 699.623 142.028 692.148 142.028C681.788 142.028 672.214 140.192 663.427 136.52C654.772 132.848 647.231 127.799 640.805 121.373C634.51 114.947 629.592 107.472 626.052 98.9474C622.511 90.292 620.74 81.1119 620.74 71.4073C620.74 61.5716 622.511 52.3915 626.052 43.8672C629.592 35.2117 634.51 27.7365 640.805 21.4417C647.231 15.0156 654.772 9.9666 663.427 6.29458C672.214 2.49142 681.788 0.589844 692.148 0.589844C704.869 0.589844 715.688 2.95043 724.606 7.67159C733.655 12.2616 741.261 18.0975 747.425 25.1792L738.376 32.8511Z" fill="url(#paint3_linear_6601_1073)"/>
<path d="M607.865 100.915C607.865 114.423 604.127 124.718 596.652 131.8C589.308 138.881 578.948 142.422 565.571 142.422C552.194 142.422 541.769 138.881 534.293 131.8C526.949 124.718 523.277 114.423 523.277 100.915V2.55762H535.867V101.112C535.867 110.554 538.424 117.898 543.539 123.144C548.654 128.259 555.998 130.816 565.571 130.816C575.145 130.816 582.489 128.259 587.603 123.144C592.718 117.898 595.275 110.554 595.275 101.112V2.55762H607.865V100.915Z" fill="url(#paint4_linear_6601_1073)"/>
<path d="M366.479 71.4073C366.479 61.5716 368.249 52.3915 371.79 43.8672C375.331 35.2117 380.249 27.7365 386.543 21.4417C392.838 15.0156 400.379 9.9666 409.166 6.29458C417.952 2.49142 427.657 0.589844 438.28 0.589844C448.902 0.589844 458.607 2.49142 467.393 6.29458C476.18 9.9666 483.786 15.0156 490.212 21.4417C496.638 27.7365 501.622 35.2117 505.163 43.8672C508.704 52.3915 510.474 61.5716 510.474 71.4073C510.474 81.1119 508.704 90.292 505.163 98.9474C501.622 107.472 496.638 114.947 490.212 121.373C483.786 127.668 476.18 132.717 467.393 136.52C458.607 140.192 448.902 142.028 438.28 142.028C427.919 142.028 418.346 140.192 409.559 136.52C400.773 132.848 393.166 127.799 386.74 121.373C380.445 114.947 375.462 107.472 371.79 98.9474C368.249 90.292 366.479 81.1119 366.479 71.4073ZM438.28 130.422C446.804 130.422 454.672 128.914 461.885 125.897C469.098 122.75 475.328 118.553 480.573 113.308C485.819 107.931 489.885 101.636 492.77 94.423C495.786 87.2101 497.294 79.5382 497.294 71.4073C497.294 63.1453 495.852 55.4078 492.966 48.1949C490.212 40.982 486.212 34.7527 480.967 29.507C475.852 24.1301 469.623 19.9335 462.279 16.9172C455.066 13.7698 447.066 12.196 438.28 12.196C429.493 12.196 421.428 13.7698 414.084 16.9172C406.871 19.9335 400.641 24.1301 395.396 29.507C390.281 34.7527 386.281 40.982 383.396 48.1949C380.511 55.4078 379.068 63.1453 379.068 71.4073C379.068 79.6694 380.511 87.4068 383.396 94.6197C386.281 101.701 390.281 107.931 395.396 113.308C400.641 118.553 406.871 122.75 414.084 125.897C421.428 128.914 429.493 130.422 438.28 130.422Z" fill="url(#paint5_linear_6601_1073)"/>
<path d="M284.756 2.55762H366.196V13.9671H331.771V140.258H319.181V13.9671H284.756V2.55762Z" fill="url(#paint6_linear_6601_1073)"/>
<path d="M203.343 1.77051L243.472 140.258H230.489L219.08 99.9314H178.163L166.95 140.258H154.754L195.081 1.77051H203.343ZM181.31 88.5219H215.932L198.621 26.3599L181.31 88.5219Z" fill="url(#paint7_linear_6601_1073)"/>
<path d="M1268.39 310.17L1206.43 198.042V310.17H1194.62V172.469H1206.23L1268.2 284.597V172.469H1280V310.17H1268.39Z" fill="url(#paint8_linear_6601_1073)"/>
<path d="M1035.86 241.319C1035.86 231.484 1037.63 222.304 1041.17 213.779C1044.71 205.124 1049.63 197.649 1055.92 191.354C1062.22 184.928 1069.76 179.879 1078.55 176.207C1087.33 172.404 1097.04 170.502 1107.66 170.502C1118.28 170.502 1127.99 172.404 1136.77 176.207C1145.56 179.879 1153.17 184.928 1159.59 191.354C1166.02 197.649 1171 205.124 1174.54 213.779C1178.08 222.304 1179.85 231.484 1179.85 241.319C1179.85 251.024 1178.08 260.204 1174.54 268.86C1171 277.384 1166.02 284.859 1159.59 291.285C1153.17 297.58 1145.56 302.629 1136.77 306.432C1127.99 310.104 1118.28 311.94 1107.66 311.94C1097.3 311.94 1087.73 310.104 1078.94 306.432C1070.15 302.76 1062.55 297.711 1056.12 291.285C1049.83 284.859 1044.84 277.384 1041.17 268.86C1037.63 260.204 1035.86 251.024 1035.86 241.319ZM1107.66 300.334C1116.18 300.334 1124.05 298.826 1131.27 295.81C1138.48 292.662 1144.71 288.466 1149.95 283.22C1155.2 277.843 1159.27 271.548 1162.15 264.335C1165.17 257.122 1166.67 249.45 1166.67 241.319C1166.67 233.057 1165.23 225.32 1162.35 218.107C1159.59 210.894 1155.59 204.665 1150.35 199.419C1145.23 194.042 1139 189.846 1131.66 186.829C1124.45 183.682 1116.45 182.108 1107.66 182.108C1098.87 182.108 1090.81 183.682 1083.46 186.829C1076.25 189.846 1070.02 194.042 1064.78 199.419C1059.66 204.665 1055.66 210.894 1052.78 218.107C1049.89 225.32 1048.45 233.057 1048.45 241.319C1048.45 249.581 1049.89 257.319 1052.78 264.532C1055.66 271.614 1059.66 277.843 1064.78 283.22C1070.02 288.466 1076.25 292.662 1083.46 295.81C1090.81 298.826 1098.87 300.334 1107.66 300.334Z" fill="url(#paint9_linear_6601_1073)"/>
<path d="M1021.15 172.469V310.169H1008.56V172.469H1021.15Z" fill="url(#paint10_linear_6601_1073)"/>
<path d="M913.361 172.469H994.801V183.878H960.376V310.169H947.787V183.878H913.361V172.469Z" fill="url(#paint11_linear_6601_1073)"/>
<path d="M877.335 171.681L917.465 310.168H904.481L893.072 269.842H852.155L840.942 310.168H828.746L869.073 171.681H877.335ZM855.303 258.432H889.924L872.614 196.27L855.303 258.432Z" fill="url(#paint12_linear_6601_1073)"/>
<path d="M809.415 202.763C804.3 196.468 797.94 191.485 790.334 187.813C782.858 184.01 773.81 182.108 763.187 182.108C754.531 182.108 746.597 183.682 739.384 186.829C732.171 189.846 725.942 194.042 720.696 199.419C715.582 204.796 711.582 211.091 708.697 218.304C705.812 225.385 704.369 233.057 704.369 241.319C704.369 249.581 705.746 257.319 708.5 264.532C711.385 271.614 715.385 277.843 720.5 283.22C725.745 288.466 731.975 292.662 739.188 295.81C746.401 298.826 754.4 300.334 763.187 300.334C769.351 300.334 775.121 299.613 780.498 298.17C785.875 296.596 790.793 294.498 795.251 291.875C799.841 289.252 803.841 286.17 807.251 282.63C810.792 278.958 813.743 274.958 816.103 270.63L825.939 276.531C822.923 281.646 819.382 286.367 815.316 290.695C811.251 295.023 806.595 298.76 801.35 301.908C796.235 305.055 790.465 307.547 784.039 309.383C777.613 311.088 770.662 311.94 763.187 311.94C752.827 311.94 743.253 310.104 734.466 306.432C725.811 302.76 718.27 297.711 711.844 291.285C705.549 284.859 700.632 277.384 697.091 268.86C693.55 260.204 691.779 251.024 691.779 241.319C691.779 231.484 693.55 222.304 697.091 213.779C700.632 205.124 705.549 197.649 711.844 191.354C718.27 184.928 725.811 179.879 734.466 176.207C743.253 172.404 752.827 170.502 763.187 170.502C775.908 170.502 786.727 172.863 795.645 177.584C804.694 182.174 812.3 188.01 818.464 195.091L809.415 202.763Z" fill="url(#paint13_linear_6601_1073)"/>
<path d="M677.07 172.469V310.17H664.48V172.469H677.07Z" fill="url(#paint14_linear_6601_1073)"/>
<path d="M569.275 172.469H650.716V183.878H616.29V310.169H603.701V183.878H569.275V172.469Z" fill="url(#paint15_linear_6601_1073)"/>
<path d="M550.736 276.728C550.736 269.777 548.966 264.335 545.425 260.4C541.884 256.335 537.425 252.991 532.048 250.368C526.671 247.745 520.901 245.385 514.737 243.286C508.574 241.188 502.803 238.631 497.426 235.614C492.049 232.467 487.591 228.401 484.05 223.418C480.509 218.303 478.738 211.484 478.738 202.96C478.738 197.32 479.853 192.403 482.083 188.206C484.312 184.009 487.263 180.534 490.935 177.78C494.738 174.895 499 172.797 503.721 171.485C508.573 170.043 513.557 169.321 518.672 169.321C522.606 169.321 526.475 169.78 530.278 170.698C534.212 171.485 537.95 172.731 541.491 174.436C545.031 176.01 548.244 178.042 551.13 180.534C554.146 183.026 556.703 185.911 558.801 189.19L550.933 196.075C549.359 193.321 547.392 190.96 545.031 188.993C542.671 186.895 540.048 185.19 537.163 183.878C534.278 182.436 531.261 181.386 528.114 180.731C525.098 180.075 522.016 179.747 518.868 179.747C515.327 179.747 511.852 180.206 508.442 181.124C505.164 182.042 502.213 183.485 499.59 185.452C497.098 187.288 495.066 189.649 493.492 192.534C492.049 195.288 491.328 198.632 491.328 202.566C491.328 207.681 492.377 211.943 494.476 215.353C496.574 218.631 499.262 221.451 502.541 223.811C505.951 226.172 509.819 228.205 514.147 229.91C518.475 231.614 522.868 233.319 527.327 235.024C531.917 236.729 536.376 238.631 540.704 240.729C545.031 242.827 548.835 245.45 552.113 248.598C555.523 251.614 558.277 255.351 560.375 259.81C562.474 264.269 563.523 269.712 563.523 276.138C563.523 282.039 562.277 287.285 559.785 291.875C557.424 296.465 554.211 300.334 550.146 303.481C546.212 306.629 541.622 308.989 536.376 310.563C531.13 312.137 525.753 312.923 520.245 312.923C515.524 312.923 510.737 312.268 505.885 310.956C501.164 309.776 496.705 308.006 492.508 305.645C488.443 303.153 484.705 300.071 481.296 296.399C477.886 292.596 475.198 288.137 473.23 283.023L483.263 276.925C484.837 281.252 487 285.055 489.754 288.334C492.508 291.481 495.59 294.104 499 296.203C502.41 298.17 506.016 299.678 509.819 300.727C513.623 301.776 517.426 302.301 521.229 302.301C525.163 302.301 528.901 301.776 532.442 300.727C535.983 299.678 539.064 298.104 541.687 296.006C544.441 293.776 546.605 291.088 548.179 287.941C549.884 284.662 550.736 280.924 550.736 276.728Z" fill="url(#paint16_linear_6601_1073)"/>
<path d="M456.947 172.469V310.169H444.357V172.469H456.947Z" fill="url(#paint17_linear_6601_1073)"/>
<path d="M419.89 172.469V310.169H407.3V245.844H351.236V310.169H338.646V172.469H351.236V234.434H407.3V172.469H419.89Z" fill="url(#paint18_linear_6601_1073)"/>
<path d="M268.387 232.467H284.911C292.386 232.467 298.484 230.369 303.205 226.172C307.926 221.844 310.287 215.812 310.287 208.074C310.287 200.468 307.992 194.566 303.402 190.37C298.812 186.042 292.648 183.878 284.911 183.878H268.387V232.467ZM268.387 243.876V310.169H255.797V172.469H284.911C296.714 172.469 306.09 175.616 313.041 181.911C319.992 188.075 323.467 196.861 323.467 208.271C323.467 219.549 319.992 228.336 313.041 234.631C306.09 240.795 296.714 243.876 284.911 243.876H268.387Z" fill="url(#paint19_linear_6601_1073)"/>
<path d="M97.0293 241.319C97.0293 231.484 98.7997 222.304 102.341 213.779C105.881 205.124 110.799 197.649 117.094 191.354C123.389 184.928 130.93 179.879 139.717 176.207C148.503 172.404 158.208 170.502 168.83 170.502C179.453 170.502 189.158 172.404 197.944 176.207C206.731 179.879 214.337 184.928 220.763 191.354C227.189 197.649 232.173 205.124 235.714 213.779C239.254 222.304 241.025 231.484 241.025 241.319C241.025 251.024 239.254 260.204 235.714 268.86C232.173 277.384 227.189 284.859 220.763 291.285C214.337 297.58 206.731 302.629 197.944 306.432C189.158 310.104 179.453 311.94 168.83 311.94C158.47 311.94 148.897 310.104 140.11 306.432C131.323 302.76 123.717 297.711 117.291 291.285C110.996 284.859 106.013 277.384 102.341 268.86C98.7997 260.204 97.0293 251.024 97.0293 241.319ZM168.83 300.334C177.355 300.334 185.223 298.826 192.436 295.81C199.649 292.662 205.878 288.466 211.124 283.22C216.37 277.843 220.435 271.548 223.32 264.335C226.337 257.122 227.845 249.45 227.845 241.319C227.845 233.057 226.402 225.32 223.517 218.107C220.763 210.894 216.763 204.665 211.518 199.419C206.403 194.042 200.174 189.846 192.83 186.829C185.617 183.682 177.617 182.108 168.83 182.108C160.044 182.108 151.978 183.682 144.634 186.829C137.421 189.846 131.192 194.042 125.946 199.419C120.832 204.665 116.832 210.894 113.947 218.107C111.062 225.32 109.619 233.057 109.619 241.319C109.619 249.581 111.062 257.319 113.947 264.532C116.832 271.614 120.832 277.843 125.946 283.22C131.192 288.466 137.421 292.662 144.634 295.81C151.978 298.826 160.044 300.334 168.83 300.334Z" fill="url(#paint20_linear_6601_1073)"/>
<path d="M77.5058 276.728C77.5058 269.777 75.7354 264.335 72.1945 260.4C68.6536 256.335 64.1947 252.991 58.8179 250.368C53.441 247.745 47.6707 245.385 41.5069 243.286C35.3432 241.188 29.5729 238.631 24.196 235.614C18.8191 232.467 14.3602 228.401 10.8193 223.418C7.27847 218.303 5.50803 211.484 5.50803 202.96C5.50803 197.32 6.62275 192.403 8.85218 188.206C11.0816 184.009 14.0324 180.534 17.7044 177.78C21.5075 174.895 25.7697 172.797 30.4909 171.485C35.3432 170.043 40.3266 169.321 45.4412 169.321C49.3755 169.321 53.2443 169.78 57.0474 170.698C60.9817 171.485 64.7193 172.731 68.2602 174.436C71.8011 176.01 75.0141 178.042 77.8992 180.534C80.9155 183.026 83.4728 185.911 85.5711 189.19L77.7025 196.075C76.1288 193.321 74.1616 190.96 71.801 188.993C69.4405 186.895 66.8176 185.19 63.9324 183.878C61.0473 182.436 58.031 181.386 54.8836 180.731C51.8673 180.075 48.7854 179.747 45.6379 179.747C42.0971 179.747 38.6218 180.206 35.212 181.124C31.9334 182.042 28.9827 183.485 26.3598 185.452C23.8681 187.288 21.8354 189.649 20.2617 192.534C18.8191 195.288 18.0978 198.632 18.0978 202.566C18.0978 207.681 19.1469 211.943 21.2452 215.353C23.3435 218.631 26.032 221.451 29.3106 223.811C32.7203 226.172 36.589 228.205 40.9168 229.91C45.2445 231.614 49.6378 233.319 54.0967 235.024C58.6867 236.729 63.1456 238.631 67.4733 240.729C71.8011 242.827 75.6042 245.45 78.8828 248.598C82.2925 251.614 85.0466 255.351 87.1449 259.81C89.2431 264.269 90.2923 269.712 90.2923 276.138C90.2923 282.039 89.0464 287.285 86.5547 291.875C84.1941 296.465 80.9811 300.334 76.9156 303.481C72.9813 306.629 68.3913 308.989 63.1456 310.563C57.8998 312.137 52.523 312.923 47.0149 312.923C42.2938 312.923 37.507 312.268 32.6547 310.956C27.9336 309.776 23.4747 308.006 19.2781 305.645C15.2126 303.153 11.4751 300.071 8.06533 296.399C4.65559 292.596 1.96715 288.137 0 283.023L10.0325 276.925C11.6062 281.252 13.7701 285.055 16.5241 288.334C19.2781 291.481 22.36 294.104 25.7697 296.203C29.1794 298.17 32.7859 299.678 36.589 300.727C40.3922 301.776 44.1954 302.301 47.9985 302.301C51.9328 302.301 55.6704 301.776 59.2113 300.727C62.7522 299.678 65.834 298.104 68.4569 296.006C71.2109 293.776 73.3748 291.088 74.9485 287.941C76.6534 284.662 77.5058 280.924 77.5058 276.728Z" fill="url(#paint21_linear_6601_1073)"/>
<defs>
<linearGradient id="paint0_linear_6601_1073" x1="613.329" y1="2.20114" x2="613.329" y2="119.622" gradientUnits="userSpaceOnUse">
<stop stop-color="#EAB6A0"/>
<stop offset="1" stop-color="#ca8c19"/>
</linearGradient>
<linearGradient id="paint1_linear_6601_1073" x1="613.329" y1="2.20114" x2="613.329" y2="119.622" gradientUnits="userSpaceOnUse">
<stop stop-color="#EAB6A0"/>
<stop offset="1" stop-color="#ca8c19"/>
</linearGradient>
<linearGradient id="paint2_linear_6601_1073" x1="613.329" y1="2.20114" x2="613.329" y2="119.622" gradientUnits="userSpaceOnUse">
<stop stop-color="#EAB6A0"/>
<stop offset="1" stop-color="#ca8c19"/>
</linearGradient>
<linearGradient id="paint3_linear_6601_1073" x1="613.329" y1="2.20114" x2="613.329" y2="119.622" gradientUnits="userSpaceOnUse">
<stop stop-color="#EAB6A0"/>
<stop offset="1" stop-color="#ca8c19"/>
</linearGradient>
<linearGradient id="paint4_linear_6601_1073" x1="613.329" y1="2.20114" x2="613.329" y2="119.622" gradientUnits="userSpaceOnUse">
<stop stop-color="#EAB6A0"/>
<stop offset="1" stop-color="#ca8c19"/>
</linearGradient>
<linearGradient id="paint5_linear_6601_1073" x1="613.329" y1="2.20114" x2="613.329" y2="119.622" gradientUnits="userSpaceOnUse">
<stop stop-color="#EAB6A0"/>
<stop offset="1" stop-color="#ca8c19"/>
</linearGradient>
<linearGradient id="paint6_linear_6601_1073" x1="613.329" y1="2.20114" x2="613.329" y2="119.622" gradientUnits="userSpaceOnUse">
<stop stop-color="#EAB6A0"/>
<stop offset="1" stop-color="#ca8c19"/>
</linearGradient>
<linearGradient id="paint7_linear_6601_1073" x1="613.329" y1="2.20114" x2="613.329" y2="119.622" gradientUnits="userSpaceOnUse">
<stop stop-color="#EAB6A0"/>
<stop offset="1" stop-color="#ca8c19"/>
</linearGradient>
<linearGradient id="paint8_linear_6601_1073" x1="602.191" y1="170.953" x2="602.191" y2="289.838" gradientUnits="userSpaceOnUse">
<stop stop-color="#EAB6A0"/>
<stop offset="1" stop-color="#ca8c19"/>
</linearGradient>
<linearGradient id="paint9_linear_6601_1073" x1="602.191" y1="170.953" x2="602.191" y2="289.838" gradientUnits="userSpaceOnUse">
<stop stop-color="#EAB6A0"/>
<stop offset="1" stop-color="#ca8c19"/>
</linearGradient>
<linearGradient id="paint10_linear_6601_1073" x1="602.191" y1="170.953" x2="602.191" y2="289.838" gradientUnits="userSpaceOnUse">
<stop stop-color="#EAB6A0"/>
<stop offset="1" stop-color="#ca8c19"/>
</linearGradient>
<linearGradient id="paint11_linear_6601_1073" x1="602.191" y1="170.953" x2="602.191" y2="289.838" gradientUnits="userSpaceOnUse">
<stop stop-color="#EAB6A0"/>
<stop offset="1" stop-color="#ca8c19"/>
</linearGradient>
<linearGradient id="paint12_linear_6601_1073" x1="602.191" y1="170.953" x2="602.191" y2="289.838" gradientUnits="userSpaceOnUse">
<stop stop-color="#EAB6A0"/>
<stop offset="1" stop-color="#ca8c19"/>
</linearGradient>
<linearGradient id="paint13_linear_6601_1073" x1="602.191" y1="170.953" x2="602.191" y2="289.838" gradientUnits="userSpaceOnUse">
<stop stop-color="#EAB6A0"/>
<stop offset="1" stop-color="#ca8c19"/>
</linearGradient>
<linearGradient id="paint14_linear_6601_1073" x1="602.191" y1="170.953" x2="602.191" y2="289.838" gradientUnits="userSpaceOnUse">
<stop stop-color="#EAB6A0"/>
<stop offset="1" stop-color="#ca8c19"/>
</linearGradient>
<linearGradient id="paint15_linear_6601_1073" x1="602.191" y1="170.953" x2="602.191" y2="289.838" gradientUnits="userSpaceOnUse">
<stop stop-color="#EAB6A0"/>
<stop offset="1" stop-color="#ca8c19"/>
</linearGradient>
<linearGradient id="paint16_linear_6601_1073" x1="602.191" y1="170.953" x2="602.191" y2="289.838" gradientUnits="userSpaceOnUse">
<stop stop-color="#EAB6A0"/>
<stop offset="1" stop-color="#ca8c19"/>
</linearGradient>
<linearGradient id="paint17_linear_6601_1073" x1="602.191" y1="170.953" x2="602.191" y2="289.838" gradientUnits="userSpaceOnUse">
<stop stop-color="#EAB6A0"/>
<stop offset="1" stop-color="#ca8c19"/>
</linearGradient>
<linearGradient id="paint18_linear_6601_1073" x1="602.191" y1="170.953" x2="602.191" y2="289.838" gradientUnits="userSpaceOnUse">
<stop stop-color="#EAB6A0"/>
<stop offset="1" stop-color="#ca8c19"/>
</linearGradient>
<linearGradient id="paint19_linear_6601_1073" x1="602.191" y1="170.953" x2="602.191" y2="289.838" gradientUnits="userSpaceOnUse">
<stop stop-color="#EAB6A0"/>
<stop offset="1" stop-color="#ca8c19"/>
</linearGradient>
<linearGradient id="paint20_linear_6601_1073" x1="602.191" y1="170.953" x2="602.191" y2="289.838" gradientUnits="userSpaceOnUse">
<stop stop-color="#EAB6A0"/>
<stop offset="1" stop-color="#ca8c19"/>
</linearGradient>
<linearGradient id="paint21_linear_6601_1073" x1="602.191" y1="170.953" x2="602.191" y2="289.838" gradientUnits="userSpaceOnUse">
<stop stop-color="#EAB6A0"/>
<stop offset="1" stop-color="#ca8c19"/>
</linearGradient>
</defs>
</svg>
