<svg width="1280" height="160" viewBox="0 0 1280 160" fill="none" xmlns="http://www.w3.org/2000/svg">
<path d="M1206.42 2.21909H1280V15.0901H1220.56V72.122H1280V84.993H1220.56V144.688H1280V157.559H1206.42V2.21909Z" fill="#F8F0E8"/>
<path d="M1125.15 82.7739H1122.06V157.559H1107.92V2.21909H1140.62C1153.88 2.21909 1164.41 5.76972 1172.22 12.871C1180.02 19.8243 1183.93 29.7364 1183.93 42.6075C1183.93 55.1826 1180.02 65.0208 1172.22 72.122C1164.56 79.0753 1154.24 82.626 1141.28 82.7739L1187.02 157.559H1170.89L1125.15 82.7739ZM1122.06 69.9029H1140.62C1149.02 69.9029 1155.87 67.5358 1161.17 62.8016C1166.47 57.9195 1169.12 51.1142 1169.12 42.3855C1169.12 33.8049 1166.54 27.1474 1161.39 22.4133C1156.23 17.5312 1149.31 15.0901 1140.62 15.0901H1122.06V69.9029Z" fill="#F8F0E8"/>
<path d="M1080.42 113.176C1080.42 128.414 1076.22 140.028 1067.83 148.017C1059.58 156.006 1047.94 160 1032.92 160C1017.89 160 1006.18 156.006 997.785 148.017C989.536 140.028 985.412 128.414 985.412 113.176V2.21909H999.553V113.398C999.553 124.05 1002.43 132.335 1008.17 138.252C1013.91 144.022 1022.16 146.907 1032.92 146.907C1043.67 146.907 1051.92 144.022 1057.66 138.252C1063.41 132.335 1066.28 124.05 1066.28 113.398V2.21909H1080.42V113.176Z" fill="#F8F0E8"/>
<path d="M878.48 2.21909H969.954V15.0901H931.288V157.559H917.147V15.0901H878.48V2.21909Z" fill="#F8F0E8"/>
<path d="M853.009 36.3939C847.264 29.2927 840.12 23.6708 831.576 19.5284C823.18 15.2381 813.016 13.0929 801.085 13.0929C791.363 13.0929 782.452 14.8682 774.35 18.4189C766.248 21.8216 759.252 26.5557 753.36 32.6214C747.615 38.687 743.122 45.7883 739.882 53.9251C736.641 61.914 735.021 70.5687 735.021 79.8891C735.021 89.2095 736.567 97.9381 739.661 106.075C742.901 114.064 747.394 121.091 753.139 127.157C759.031 133.074 766.028 137.809 774.129 141.359C782.231 144.762 791.216 146.463 801.085 146.463C808.008 146.463 814.49 145.65 820.529 144.022C826.568 142.247 832.092 139.88 837.1 136.921C842.256 133.962 846.748 130.485 850.578 126.491C854.555 122.349 857.87 117.836 860.521 112.954L871.569 119.612C868.181 125.381 864.203 130.707 859.637 135.59C855.071 140.472 849.842 144.688 843.95 148.239C838.205 151.789 831.724 154.6 824.506 156.671C817.288 158.595 809.481 159.556 801.085 159.556C789.448 159.556 778.695 157.485 768.826 153.343C759.104 149.2 750.635 143.504 743.417 136.255C736.346 129.006 730.823 120.573 726.846 110.957C722.868 101.193 720.88 90.8368 720.88 79.8891C720.88 68.7934 722.868 58.4374 726.846 48.8211C730.823 39.0569 736.346 30.6241 743.417 23.5229C750.635 16.2737 759.104 10.5779 768.826 6.4355C778.695 2.14517 789.448 0 801.085 0C815.373 0 827.526 2.66297 837.542 7.98891C847.706 13.1669 856.249 19.7503 863.172 27.7393L853.009 36.3939Z" fill="#F8F0E8"/>
<path d="M634.929 2.21909H708.505V15.0901H649.069V72.122H708.505V84.993H649.069V144.688H708.505V157.559H634.929V2.21909Z" fill="#F8F0E8"/>
<path d="M525.787 2.21909H617.261V15.0901H578.594V157.559H564.454V15.0901H525.787V2.21909Z" fill="#F8F0E8"/>
<path d="M508.162 2.21909V157.559H494.021V2.21909H508.162Z" fill="#F8F0E8"/>
<path d="M464.328 2.21909V157.559H450.188V84.993H387.217V157.559H373.076V2.21909H387.217V72.122H450.188V2.21909H464.328Z" fill="#F8F0E8"/>
<path d="M335.673 36.3939C329.928 29.2927 322.784 23.6708 314.24 19.5284C305.844 15.2381 295.681 13.0929 283.749 13.0929C274.027 13.0929 265.116 14.8682 257.014 18.4189C248.913 21.8216 241.916 26.5557 236.024 32.6214C230.279 38.687 225.786 45.7883 222.546 53.9251C219.305 61.914 217.685 70.5687 217.685 79.8891C217.685 89.2095 219.232 97.9381 222.325 106.075C225.565 114.064 230.058 121.091 235.803 127.157C241.695 133.074 248.692 137.809 256.793 141.359C264.895 144.762 273.88 146.463 283.749 146.463C290.672 146.463 297.154 145.65 303.193 144.022C309.232 142.247 314.756 139.88 319.764 136.921C324.92 133.962 329.412 130.485 333.242 126.491C337.219 122.349 340.534 117.836 343.185 112.954L354.233 119.612C350.845 125.381 346.868 130.707 342.301 135.59C337.735 140.472 332.506 144.688 326.614 148.239C320.869 151.789 314.388 154.6 307.17 156.671C299.952 158.595 292.145 159.556 283.749 159.556C272.112 159.556 261.359 157.485 251.49 153.343C241.768 149.2 233.299 143.504 226.081 136.255C219.011 129.006 213.487 120.573 209.51 110.957C205.533 101.193 203.544 90.8368 203.544 79.8891C203.544 68.7934 205.533 58.4374 209.51 48.8211C213.487 39.0569 219.011 30.6241 226.081 23.5229C233.299 16.2737 241.768 10.5779 251.49 6.4355C261.359 2.14517 272.112 0 283.749 0C298.037 0 310.19 2.66297 320.206 7.98891C330.37 13.1669 338.913 19.7503 345.836 27.7393L335.673 36.3939Z" fill="#F8F0E8"/>
<path d="M133.101 82.7739H130.007V157.559H115.866V2.21909H148.567C161.824 2.21909 172.356 5.76972 180.163 12.871C187.97 19.8243 191.874 29.7364 191.874 42.6075C191.874 55.1826 187.97 65.0208 180.163 72.122C172.504 79.0753 162.193 82.626 149.23 82.7739L194.967 157.559H178.838L133.101 82.7739ZM130.007 69.9029H148.567C156.963 69.9029 163.813 67.5358 169.116 62.8016C174.418 57.9195 177.07 51.1142 177.07 42.3855C177.07 33.8049 174.492 27.1474 169.337 22.4133C164.181 17.5312 157.258 15.0901 148.567 15.0901H130.007V69.9029Z" fill="#F8F0E8"/>
<path d="M54.5749 1.33148L99.6489 157.559H85.0661L72.251 112.067H26.2932L13.699 157.559H0L45.295 1.33148H54.5749ZM29.8284 99.1956H68.7158L49.2721 29.0707L29.8284 99.1956Z" fill="#F8F0E8"/>
</svg>
